<?xml version="1.0" encoding="iso-8859-1"?>
<!-- Generator: Adobe Illustrator 26.0.1, SVG Export Plug-In . SVG Version: 6.00 Build 0)  -->
<svg version="1.1" id="Layer_1" xmlns="http://www.w3.org/2000/svg" xmlns:xlink="http://www.w3.org/1999/xlink" x="0px" y="0px"
	 viewBox="0 0 1080 1080" style="enable-background:new 0 0 1080 1080;" xml:space="preserve">
<g>
	<g>
		<path style="fill:#09152A;" d="M540.001,1080h-0.001C241.766,1080,0,838.234,0,540.001v-0.001C0,241.766,241.766,0,539.999,0
			h0.001C838.234,0,1080,241.766,1080,539.999v0.001C1080,838.234,838.234,1080,540.001,1080z"/>
	</g>
</g>
<g>
	<g>
		<path style="fill:#4CC8ED;" d="M307.049,553.786c3.781-29.847,9.923-56.493,9.923-56.493L91.903,464.169v0
			c12.248,55.811,46.769,74.566,86.245,78.026L307.049,553.786z"/>
		<path style="fill:#4CC8ED;" d="M307.333,628.616c-1.536-8.349-2.465-17.149-2.968-26.53c-0.452-8.62-0.155-18.285,0.594-28.169
			l-160.834-12.878v0c12.602,47.528,47.759,65.081,82.444,66.037L307.333,628.616z"/>
		<path style="fill:#4CC8ED;" d="M312.998,650.075l-101.179,0.981v0c20.531,41.956,49.806,51.907,79.755,51.491l56.729-1.075
			C330.676,685.264,319.657,668.708,312.998,650.075z"/>
		<path style="fill:#4CC8ED;" d="M444.811,559.051l-31.873-12.065c-4.103,13.214-5.574,53.112,20.737,59.242
			c26.311,6.116,32.389-11.704,32.389-11.704C439.946,600.459,444.811,559.051,444.811,559.051z"/>
		<path style="fill:#4CC8ED;" d="M737.109,498.016c22.285-82.598,15.201-162.46,11.33-191.919
			c-0.774-5.962-7.536-9.058-12.568-5.768c-38.324,25.072-110.586,98.289-110.586,98.289
			c-37.266-14.581-85.282-14.078-85.282-14.078s-48.015-0.503-85.282,14.078c0,0-72.262-73.216-110.586-98.289
			c-5.032-3.29-11.794-0.194-12.568,5.768c-3.871,29.46-10.955,109.322,11.33,191.919c0,0-12.956,57.977-12.956,95.424
			c0,37.447,4.684,61.577,50.415,102.637c22.866,20.517,52.48,40.415,81.527,55.848c29.06,15.433,57.525,26.401,78.12,29.085
			c41.176-5.355,113.915-43.886,159.646-84.933c45.731-41.06,50.415-65.19,50.415-102.637
			C750.065,555.993,737.109,498.016,737.109,498.016z M369.014,476.492c-16.388-36.273-10.672-126.935-10.672-126.935
			c22.143,12.555,68.468,63.203,68.468,63.203C394.125,441.381,369.014,476.492,369.014,476.492z M423.571,618.835
			c-52.673-12.697-41.331-91.566-41.331-91.566s66.442-1.342,118.032,69.681C500.272,596.95,476.232,631.519,423.571,618.835z
			 M576.134,720.194c-20.53,1.084-36.131-14.581-36.131-14.581s-15.601,15.665-36.131,14.581
			c-20.53-1.071-27.911-20.336-27.911-20.336h9.368c0,0,14.801,8.904,26.556,6.207c6.607-1.523,12.956-4.826,16.723-10.568
			c4.942-7.536,3.11-17.64-3.807-23.421c-6.762-5.652-16.207-14.53-16.827-20.569c-0.955-9.446,2.826-14.039,14.439-14.039
			c11.613,0,17.588,0,17.588,0s5.974,0,17.588,0s15.394,4.594,14.439,14.039c-0.619,6.039-10.065,14.917-16.827,20.569
			c-6.916,5.781-8.749,15.885-3.807,23.421c3.768,5.742,10.117,9.046,16.723,10.568c11.755,2.697,26.556-6.207,26.556-6.207h9.368
			C604.045,699.858,596.664,719.123,576.134,720.194z M656.434,618.835c-52.661,12.684-76.701-21.885-76.701-21.885
			c51.577-71.023,118.019-69.681,118.019-69.681S709.095,606.137,656.434,618.835z M710.992,476.492
			c0,0-25.124-35.111-57.796-63.732c0,0,46.312-50.648,68.468-63.203C721.663,349.557,727.38,440.219,710.992,476.492z"/>
		<path style="fill:#4CC8ED;" d="M635.182,559.051c0,0,4.865,41.408-21.24,35.473c0,0,6.065,17.82,32.389,11.704
			c26.311-6.129,24.827-46.028,20.724-59.242L635.182,559.051z"/>
		<path style="fill:#4CC8ED;" d="M763.027,497.293c0,0,6.142,26.646,9.923,56.493l128.901-11.591
			c39.475-3.46,73.997-22.216,86.245-78.026v0L763.027,497.293z"/>
		<path style="fill:#4CC8ED;" d="M775.635,602.085c-0.503,9.381-1.432,18.182-2.968,26.53l80.764-1.54
			c34.685-0.956,69.842-18.509,82.444-66.037v0l-160.834,12.878C775.789,583.801,776.086,593.466,775.635,602.085z"/>
		<path style="fill:#4CC8ED;" d="M731.697,701.471l56.729,1.075c29.949,0.416,59.225-9.535,79.755-51.491v0l-101.179-0.981
			C760.343,668.708,749.324,685.264,731.697,701.471z"/>
	</g>
</g>
</svg>
